<svg width="80" height="80" viewBox="0 0 80 80" fill="none" xmlns="http://www.w3.org/2000/svg">
<rect width="80" height="80" fill="#6A6A6A"/>
<g id="Get Started" clip-path="url(#clip0_259_2027)">
<rect width="1920" height="1083" transform="translate(-202 -487)" fill="white"/>
<rect id="Rectangle 380" x="-202" y="-487" width="1304" height="1083" fill="#F4F7FE"/>
<g id="Group 6">
<rect id="Rectangle 383" x="-20" y="-20" width="600" height="120" rx="20" fill="white"/>
<g id="Group 3">
<rect id="Rectangle 381" width="80" height="80" rx="40" fill="#F4F7FE"/>
<g id="Group">
<path id="Vector" opacity="0.958" fill-rule="evenodd" clip-rule="evenodd" d="M64 38.6826C64 38.9975 64 39.3126 64 39.6275C62.3253 43.5767 60.6717 47.5452 59.0394 51.533C58.9559 51.7789 58.8142 51.9836 58.6142 52.1472C52.858 52.2567 47.0942 52.3355 41.3228 52.3834C41.0708 52.9818 40.8189 53.5803 40.5669 54.1787C46.1414 54.2574 51.7163 54.3046 57.2913 54.3204C57.4407 54.3872 57.5825 54.4659 57.7165 54.5566C57.9636 54.9613 58.2471 55.3393 58.5669 55.6905C59.3628 57.3402 59.0636 58.7418 57.6693 59.8952C56.0807 60.7428 54.6791 60.5065 53.4646 59.1865C52.8697 58.323 52.7279 57.3939 53.0394 56.3991C50.2677 56.3361 47.496 56.3361 44.7244 56.3991C45.162 58.1069 44.5951 59.3667 43.0236 60.1787C41.3656 60.697 40.0586 60.2403 39.1024 58.8086C38.7664 58.0161 38.6877 57.1972 38.8661 56.3519C38.2879 56.2461 37.9729 55.8996 37.9213 55.3125C38.2969 54.0881 38.7537 52.8912 39.2913 51.722C39.4 51.509 39.4316 51.2886 39.3858 51.0606C37.489 46.4799 35.5677 41.913 33.622 37.3598C33.4662 38.8546 32.6631 39.7838 31.2126 40.1472C29.8089 40.3352 28.6592 39.8785 27.7638 38.7771C27.7323 40.2574 27.7008 41.7377 27.6693 43.218C27.5832 43.6339 27.4415 44.0276 27.2441 44.3991C28.1022 48.5639 28.9369 52.7371 29.748 56.9188C29.7904 58.9871 28.7825 60.1524 26.7244 60.4149C25.2969 60.3397 24.3205 59.6467 23.7953 58.3361C23.4997 56.9529 23.2163 55.5671 22.9449 54.1787C22.5949 55.5813 22.2799 56.9987 22 58.4306C21.3322 59.8436 20.214 60.4893 18.6457 60.3676C17.0299 60.0111 16.148 59.0033 16 57.344C16.7766 53.2249 17.5955 49.1147 18.4567 45.0133C18.0325 44.4167 17.7648 43.7553 17.6535 43.0291C17.5905 39.1236 17.5905 35.218 17.6535 31.3125C17.9018 30.0282 18.516 28.9572 19.4961 28.0999C17.4541 26.1575 17.0604 23.9213 18.315 21.3913C20.0761 19.0334 22.3281 18.4192 25.0709 19.5488C27.1318 20.8141 27.998 22.6566 27.6693 25.0763C27.429 26.283 26.8305 27.2595 25.874 28.0054C28.1363 30.3625 30.4513 32.7091 32.8189 35.0448C33.5191 35.055 34.2121 35.118 34.8976 35.2338C35.0079 35.3441 35.1181 35.4542 35.2283 35.5645C35.5909 36.4007 35.9532 37.2354 36.315 38.0684C45.2913 38.0999 54.2677 38.1315 63.2441 38.1629C63.5347 38.2804 63.7867 38.4537 64 38.6826ZM22.0472 21.1078C23.8506 20.9758 25.0317 21.7632 25.5906 23.47C25.7504 25.3569 24.9158 26.538 23.0866 27.0133C21.2553 27.0721 20.1371 26.2059 19.7323 24.4149C19.7142 22.7477 20.4859 21.6453 22.0472 21.1078ZM22.3307 29.1393C23.1676 29.1191 23.9235 29.3553 24.5984 29.848C26.916 32.1341 29.1995 34.4491 31.4488 36.7928C31.563 37.8608 31.1063 38.2544 30.0787 37.9739C27.8425 35.7377 25.6063 33.5015 23.3701 31.2653C22.9789 30.959 22.538 30.8645 22.0472 30.9818C21.5173 31.2915 21.344 31.7481 21.5276 32.3519C22.813 33.8265 24.1673 35.2438 25.5906 36.6039C25.6536 38.6511 25.6536 40.6983 25.5906 42.7456C25.404 43.2289 25.2308 43.7171 25.0709 44.2102C25.9177 48.4125 26.7523 52.6172 27.5748 56.8243C27.7636 57.8637 27.3384 58.3204 26.2992 58.1944C26.0453 58.0173 25.872 57.781 25.7795 57.4858C25.0043 53.5779 24.2169 49.6724 23.4173 45.7692C23.3071 45.533 23.1339 45.3598 22.8976 45.2495C21.171 45.1284 20.1159 44.2308 19.7323 42.5566C19.6693 38.9661 19.6693 35.3755 19.7323 31.785C20.0486 30.3506 20.9147 29.4688 22.3307 29.1393ZM37.1654 40.2889C45.244 40.1787 53.3385 40.163 61.4488 40.2417C61.147 40.8637 60.8636 41.4936 60.5984 42.1314C53.0708 42.1945 45.5433 42.1945 38.0157 42.1314C37.7214 41.5132 37.438 40.899 37.1654 40.2889ZM38.8661 44.3519C45.8109 44.2417 52.7716 44.226 59.748 44.3047C59.4829 44.9424 59.1994 45.5724 58.8976 46.1944C52.4725 46.2417 46.0473 46.2574 39.622 46.2417C39.4191 45.5851 39.1672 44.9551 38.8661 44.3519ZM20.252 46.7141C20.6812 46.8624 21.1064 47.0199 21.5276 47.1865C21.6319 47.6613 21.7422 48.1338 21.8583 48.6039C21.2382 51.5937 20.6241 54.5858 20.0157 57.5802C19.7121 58.24 19.224 58.4132 18.5512 58.0999C18.2851 57.8985 18.1591 57.6308 18.1732 57.2968C18.8543 53.7653 19.5473 50.2377 20.252 46.7141ZM40.5669 48.3204C46.3938 48.3046 52.2205 48.3204 58.0472 48.3676C57.8091 48.9544 57.5571 49.537 57.2913 50.1157C51.9688 50.2259 46.6459 50.2416 41.3228 50.1629C41.0574 49.5536 40.8055 48.9394 40.5669 48.3204ZM41.6063 56.3519C42.4755 56.3858 42.8377 56.8268 42.6929 57.6747C42.4171 58.1968 41.9919 58.37 41.4173 58.1944C40.6279 57.4937 40.6909 56.8795 41.6063 56.3519ZM55.7795 56.3519C56.6737 56.4411 57.0044 56.9135 56.7717 57.7692C56.4937 58.2089 56.0999 58.3506 55.5905 58.1944C55.0685 57.9186 54.8953 57.4934 55.0709 56.9188C55.2701 56.6711 55.5064 56.4821 55.7795 56.3519Z" fill="#84969F"/>
</g>
</g>
</g>
</g>
<defs>
<clipPath id="clip0_259_2027">
<rect width="1920" height="1083" fill="white" transform="translate(-202 -487)"/>
</clipPath>
</defs>
</svg>
